<?xml version="1.0" encoding="utf-8" standalone="no"?>
<!DOCTYPE svg PUBLIC "-//W3C//DTD SVG 1.1//EN"
  "http://www.w3.org/Graphics/SVG/1.1/DTD/svg11.dtd">
<svg xmlns:xlink="http://www.w3.org/1999/xlink" width="449.28pt" height="334.08pt" viewBox="0 0 449.28 334.08" xmlns="http://www.w3.org/2000/svg" version="1.1">
 <metadata>
  <rdf:RDF xmlns:dc="http://purl.org/dc/elements/1.1/" xmlns:cc="http://creativecommons.org/ns#" xmlns:rdf="http://www.w3.org/1999/02/22-rdf-syntax-ns#">
   <cc:Work>
    <dc:type rdf:resource="http://purl.org/dc/dcmitype/StillImage"/>
    <dc:date>2023-06-30T15:23:03.121961</dc:date>
    <dc:format>image/svg+xml</dc:format>
    <dc:creator>
     <cc:Agent>
      <dc:title>Matplotlib v3.7.1, https://matplotlib.org/</dc:title>
     </cc:Agent>
    </dc:creator>
   </cc:Work>
  </rdf:RDF>
 </metadata>
 <defs>
  <style type="text/css">*{stroke-linejoin: round; stroke-linecap: butt}</style>
 </defs>
 <g id="figure_1">
  <g id="patch_1">
   <path d="M 0 334.08 
L 449.28 334.08 
L 449.28 0 
L 0 0 
L 0 334.08 
z
" style="fill: none"/>
  </g>
  <g id="axes_1">
   <g id="patch_2">
    <path d="M 50.230625 294.5725 
L 442.08 294.5725 
L 442.08 23.19225 
L 50.230625 23.19225 
L 50.230625 294.5725 
z
" style="fill: none"/>
   </g>
   <g id="PathCollection_1">
    <defs>
     <path id="md206095b7b" d="M 0 3 
C 0.795609 3 1.55874 2.683901 2.12132 2.12132 
C 2.683901 1.55874 3 0.795609 3 0 
C 3 -0.795609 2.683901 -1.55874 2.12132 -2.12132 
C 1.55874 -2.683901 0.795609 -3 0 -3 
C -0.795609 -3 -1.55874 -2.683901 -2.12132 -2.12132 
C -2.683901 -1.55874 -3 -0.795609 -3 0 
C -3 0.795609 -2.683901 1.55874 -2.12132 2.12132 
C -1.55874 2.683901 -0.795609 3 0 3 
z
" style="stroke: #1f77b4"/>
    </defs>
    <g clip-path="url(#p8b4bc883f1)">
     <use xlink:href="#md206095b7b" x="50.230625" y="158.882375" style="fill: #1f77b4; stroke: #1f77b4"/>
     <use xlink:href="#md206095b7b" x="226.199764" y="158.882375" style="fill: #1f77b4; stroke: #1f77b4"/>
     <use xlink:href="#md206095b7b" x="237.576716" y="231.282378" style="fill: #1f77b4; stroke: #1f77b4"/>
     <use xlink:href="#md206095b7b" x="237.576716" y="86.482372" style="fill: #1f77b4; stroke: #1f77b4"/>
     <use xlink:href="#md206095b7b" x="251.137211" y="168.608384" style="fill: #1f77b4; stroke: #1f77b4"/>
     <use xlink:href="#md206095b7b" x="251.137211" y="149.156366" style="fill: #1f77b4; stroke: #1f77b4"/>
     <use xlink:href="#md206095b7b" x="264.428129" y="161.222306" style="fill: #1f77b4; stroke: #1f77b4"/>
     <use xlink:href="#md206095b7b" x="264.428129" y="156.542444" style="fill: #1f77b4; stroke: #1f77b4"/>
     <use xlink:href="#md206095b7b" x="264.593825" y="190.423621" style="fill: #1f77b4; stroke: #1f77b4"/>
     <use xlink:href="#md206095b7b" x="264.593825" y="127.341129" style="fill: #1f77b4; stroke: #1f77b4"/>
     <use xlink:href="#md206095b7b" x="267.016049" y="158.882375" style="fill: #1f77b4; stroke: #1f77b4"/>
     <use xlink:href="#md206095b7b" x="270.09175" y="199.046889" style="fill: #1f77b4; stroke: #1f77b4"/>
     <use xlink:href="#md206095b7b" x="270.09175" y="118.717861" style="fill: #1f77b4; stroke: #1f77b4"/>
     <use xlink:href="#md206095b7b" x="275.48405" y="205.835142" style="fill: #1f77b4; stroke: #1f77b4"/>
     <use xlink:href="#md206095b7b" x="275.48405" y="111.929608" style="fill: #1f77b4; stroke: #1f77b4"/>
     <use xlink:href="#md206095b7b" x="281.132419" y="162.269122" style="fill: #1f77b4; stroke: #1f77b4"/>
     <use xlink:href="#md206095b7b" x="281.132419" y="155.495628" style="fill: #1f77b4; stroke: #1f77b4"/>
     <use xlink:href="#md206095b7b" x="284.278883" y="180.87109" style="fill: #1f77b4; stroke: #1f77b4"/>
     <use xlink:href="#md206095b7b" x="284.278883" y="136.89366" style="fill: #1f77b4; stroke: #1f77b4"/>
     <use xlink:href="#md206095b7b" x="288.269775" y="173.920864" style="fill: #1f77b4; stroke: #1f77b4"/>
     <use xlink:href="#md206095b7b" x="288.269775" y="143.843886" style="fill: #1f77b4; stroke: #1f77b4"/>
     <use xlink:href="#md206095b7b" x="289.723858" y="177.257974" style="fill: #1f77b4; stroke: #1f77b4"/>
     <use xlink:href="#md206095b7b" x="289.723858" y="140.506776" style="fill: #1f77b4; stroke: #1f77b4"/>
     <use xlink:href="#md206095b7b" x="294.999347" y="164.651272" style="fill: #1f77b4; stroke: #1f77b4"/>
     <use xlink:href="#md206095b7b" x="294.999347" y="153.113478" style="fill: #1f77b4; stroke: #1f77b4"/>
     <use xlink:href="#md206095b7b" x="295.532575" y="161.196506" style="fill: #1f77b4; stroke: #1f77b4"/>
     <use xlink:href="#md206095b7b" x="295.532575" y="156.568244" style="fill: #1f77b4; stroke: #1f77b4"/>
     <use xlink:href="#md206095b7b" x="298.253479" y="166.251488" style="fill: #1f77b4; stroke: #1f77b4"/>
     <use xlink:href="#md206095b7b" x="298.253479" y="151.513262" style="fill: #1f77b4; stroke: #1f77b4"/>
     <use xlink:href="#md206095b7b" x="298.321073" y="161.553009" style="fill: #1f77b4; stroke: #1f77b4"/>
     <use xlink:href="#md206095b7b" x="298.321073" y="156.211741" style="fill: #1f77b4; stroke: #1f77b4"/>
     <use xlink:href="#md206095b7b" x="298.332393" y="158.882375" style="fill: #1f77b4; stroke: #1f77b4"/>
     <use xlink:href="#md206095b7b" x="300.932406" y="158.882375" style="fill: #1f77b4; stroke: #1f77b4"/>
     <use xlink:href="#md206095b7b" x="301.115435" y="204.599084" style="fill: #1f77b4; stroke: #1f77b4"/>
     <use xlink:href="#md206095b7b" x="301.115435" y="113.165666" style="fill: #1f77b4; stroke: #1f77b4"/>
     <use xlink:href="#md206095b7b" x="301.459828" y="159.948416" style="fill: #1f77b4; stroke: #1f77b4"/>
     <use xlink:href="#md206095b7b" x="301.459828" y="157.816334" style="fill: #1f77b4; stroke: #1f77b4"/>
     <use xlink:href="#md206095b7b" x="301.914002" y="163.933783" style="fill: #1f77b4; stroke: #1f77b4"/>
     <use xlink:href="#md206095b7b" x="301.914002" y="153.830967" style="fill: #1f77b4; stroke: #1f77b4"/>
     <use xlink:href="#md206095b7b" x="303.115864" y="160.67021" style="fill: #1f77b4; stroke: #1f77b4"/>
     <use xlink:href="#md206095b7b" x="303.115864" y="157.09454" style="fill: #1f77b4; stroke: #1f77b4"/>
     <use xlink:href="#md206095b7b" x="303.437699" y="159.656637" style="fill: #1f77b4; stroke: #1f77b4"/>
     <use xlink:href="#md206095b7b" x="303.437699" y="158.108113" style="fill: #1f77b4; stroke: #1f77b4"/>
     <use xlink:href="#md206095b7b" x="303.4641" y="158.882375" style="fill: #1f77b4; stroke: #1f77b4"/>
     <use xlink:href="#md206095b7b" x="303.596667" y="159.378043" style="fill: #1f77b4; stroke: #1f77b4"/>
     <use xlink:href="#md206095b7b" x="303.596667" y="158.386707" style="fill: #1f77b4; stroke: #1f77b4"/>
     <use xlink:href="#md206095b7b" x="303.736546" y="163.489136" style="fill: #1f77b4; stroke: #1f77b4"/>
     <use xlink:href="#md206095b7b" x="303.736546" y="154.275614" style="fill: #1f77b4; stroke: #1f77b4"/>
     <use xlink:href="#md206095b7b" x="304.276906" y="159.780134" style="fill: #1f77b4; stroke: #1f77b4"/>
     <use xlink:href="#md206095b7b" x="304.276906" y="157.984616" style="fill: #1f77b4; stroke: #1f77b4"/>
     <use xlink:href="#md206095b7b" x="304.512069" y="161.314139" style="fill: #1f77b4; stroke: #1f77b4"/>
     <use xlink:href="#md206095b7b" x="304.512069" y="156.450611" style="fill: #1f77b4; stroke: #1f77b4"/>
     <use xlink:href="#md206095b7b" x="304.815634" y="161.649652" style="fill: #1f77b4; stroke: #1f77b4"/>
     <use xlink:href="#md206095b7b" x="304.815634" y="156.115098" style="fill: #1f77b4; stroke: #1f77b4"/>
     <use xlink:href="#md206095b7b" x="304.902836" y="159.29815" style="fill: #1f77b4; stroke: #1f77b4"/>
     <use xlink:href="#md206095b7b" x="304.902836" y="158.4666" style="fill: #1f77b4; stroke: #1f77b4"/>
     <use xlink:href="#md206095b7b" x="305.092693" y="158.882375" style="fill: #1f77b4; stroke: #1f77b4"/>
     <use xlink:href="#md206095b7b" x="305.355638" y="158.882375" style="fill: #1f77b4; stroke: #1f77b4"/>
     <use xlink:href="#md206095b7b" x="305.524743" y="158.882375" style="fill: #1f77b4; stroke: #1f77b4"/>
     <use xlink:href="#md206095b7b" x="305.538854" y="160.616695" style="fill: #1f77b4; stroke: #1f77b4"/>
     <use xlink:href="#md206095b7b" x="305.538854" y="157.148055" style="fill: #1f77b4; stroke: #1f77b4"/>
     <use xlink:href="#md206095b7b" x="305.559242" y="159.079439" style="fill: #1f77b4; stroke: #1f77b4"/>
     <use xlink:href="#md206095b7b" x="305.559242" y="158.685311" style="fill: #1f77b4; stroke: #1f77b4"/>
     <use xlink:href="#md206095b7b" x="305.742885" y="158.882375" style="fill: #1f77b4; stroke: #1f77b4"/>
     <use xlink:href="#md206095b7b" x="305.743659" y="158.882375" style="fill: #1f77b4; stroke: #1f77b4"/>
     <use xlink:href="#md206095b7b" x="305.753994" y="159.127721" style="fill: #1f77b4; stroke: #1f77b4"/>
     <use xlink:href="#md206095b7b" x="305.753994" y="158.637029" style="fill: #1f77b4; stroke: #1f77b4"/>
     <use xlink:href="#md206095b7b" x="305.958125" y="159.119482" style="fill: #1f77b4; stroke: #1f77b4"/>
     <use xlink:href="#md206095b7b" x="305.958125" y="158.645268" style="fill: #1f77b4; stroke: #1f77b4"/>
     <use xlink:href="#md206095b7b" x="305.984813" y="158.882375" style="fill: #1f77b4; stroke: #1f77b4"/>
     <use xlink:href="#md206095b7b" x="305.987369" y="161.794688" style="fill: #1f77b4; stroke: #1f77b4"/>
     <use xlink:href="#md206095b7b" x="305.987369" y="155.970062" style="fill: #1f77b4; stroke: #1f77b4"/>
     <use xlink:href="#md206095b7b" x="306.044944" y="160.128426" style="fill: #1f77b4; stroke: #1f77b4"/>
     <use xlink:href="#md206095b7b" x="306.044944" y="157.636324" style="fill: #1f77b4; stroke: #1f77b4"/>
     <use xlink:href="#md206095b7b" x="306.071353" y="158.882375" style="fill: #1f77b4; stroke: #1f77b4"/>
     <use xlink:href="#md206095b7b" x="306.655508" y="159.439321" style="fill: #1f77b4; stroke: #1f77b4"/>
     <use xlink:href="#md206095b7b" x="306.655508" y="158.325429" style="fill: #1f77b4; stroke: #1f77b4"/>
     <use xlink:href="#md206095b7b" x="306.74082" y="164.347617" style="fill: #1f77b4; stroke: #1f77b4"/>
     <use xlink:href="#md206095b7b" x="306.74082" y="153.417133" style="fill: #1f77b4; stroke: #1f77b4"/>
     <use xlink:href="#md206095b7b" x="306.797541" y="164.074134" style="fill: #1f77b4; stroke: #1f77b4"/>
     <use xlink:href="#md206095b7b" x="306.797541" y="153.690616" style="fill: #1f77b4; stroke: #1f77b4"/>
     <use xlink:href="#md206095b7b" x="306.89683" y="160.377458" style="fill: #1f77b4; stroke: #1f77b4"/>
     <use xlink:href="#md206095b7b" x="306.89683" y="157.387292" style="fill: #1f77b4; stroke: #1f77b4"/>
     <use xlink:href="#md206095b7b" x="307.059891" y="158.882375" style="fill: #1f77b4; stroke: #1f77b4"/>
     <use xlink:href="#md206095b7b" x="307.474532" y="159.805563" style="fill: #1f77b4; stroke: #1f77b4"/>
     <use xlink:href="#md206095b7b" x="307.474532" y="157.959187" style="fill: #1f77b4; stroke: #1f77b4"/>
     <use xlink:href="#md206095b7b" x="308.149501" y="159.838452" style="fill: #1f77b4; stroke: #1f77b4"/>
     <use xlink:href="#md206095b7b" x="308.149501" y="157.926298" style="fill: #1f77b4; stroke: #1f77b4"/>
     <use xlink:href="#md206095b7b" x="308.292996" y="162.010965" style="fill: #1f77b4; stroke: #1f77b4"/>
     <use xlink:href="#md206095b7b" x="308.292996" y="155.753785" style="fill: #1f77b4; stroke: #1f77b4"/>
     <use xlink:href="#md206095b7b" x="308.365487" y="158.882375" style="fill: #1f77b4; stroke: #1f77b4"/>
     <use xlink:href="#md206095b7b" x="308.613796" y="159.553532" style="fill: #1f77b4; stroke: #1f77b4"/>
     <use xlink:href="#md206095b7b" x="308.613796" y="158.211218" style="fill: #1f77b4; stroke: #1f77b4"/>
     <use xlink:href="#md206095b7b" x="308.824779" y="168.059813" style="fill: #1f77b4; stroke: #1f77b4"/>
     <use xlink:href="#md206095b7b" x="308.824779" y="149.704937" style="fill: #1f77b4; stroke: #1f77b4"/>
     <use xlink:href="#md206095b7b" x="310.723444" y="158.882375" style="fill: #1f77b4; stroke: #1f77b4"/>
     <use xlink:href="#md206095b7b" x="311.227653" y="158.882375" style="fill: #1f77b4; stroke: #1f77b4"/>
     <use xlink:href="#md206095b7b" x="311.863079" y="158.882375" style="fill: #1f77b4; stroke: #1f77b4"/>
     <use xlink:href="#md206095b7b" x="312.860683" y="161.448722" style="fill: #1f77b4; stroke: #1f77b4"/>
     <use xlink:href="#md206095b7b" x="312.860683" y="156.316028" style="fill: #1f77b4; stroke: #1f77b4"/>
     <use xlink:href="#md206095b7b" x="313.667329" y="161.87209" style="fill: #1f77b4; stroke: #1f77b4"/>
     <use xlink:href="#md206095b7b" x="313.667329" y="155.89266" style="fill: #1f77b4; stroke: #1f77b4"/>
     <use xlink:href="#md206095b7b" x="314.650661" y="196.838382" style="fill: #1f77b4; stroke: #1f77b4"/>
     <use xlink:href="#md206095b7b" x="314.650661" y="120.926368" style="fill: #1f77b4; stroke: #1f77b4"/>
     <use xlink:href="#md206095b7b" x="316.667999" y="160.954151" style="fill: #1f77b4; stroke: #1f77b4"/>
     <use xlink:href="#md206095b7b" x="316.667999" y="156.810599" style="fill: #1f77b4; stroke: #1f77b4"/>
     <use xlink:href="#md206095b7b" x="316.909679" y="175.885841" style="fill: #1f77b4; stroke: #1f77b4"/>
     <use xlink:href="#md206095b7b" x="316.909679" y="141.878909" style="fill: #1f77b4; stroke: #1f77b4"/>
     <use xlink:href="#md206095b7b" x="317.425471" y="158.882375" style="fill: #1f77b4; stroke: #1f77b4"/>
     <use xlink:href="#md206095b7b" x="318.57521" y="158.882375" style="fill: #1f77b4; stroke: #1f77b4"/>
     <use xlink:href="#md206095b7b" x="320.20947" y="178.847641" style="fill: #1f77b4; stroke: #1f77b4"/>
     <use xlink:href="#md206095b7b" x="320.20947" y="138.917109" style="fill: #1f77b4; stroke: #1f77b4"/>
     <use xlink:href="#md206095b7b" x="321.819886" y="159.894241" style="fill: #1f77b4; stroke: #1f77b4"/>
     <use xlink:href="#md206095b7b" x="321.819886" y="157.870509" style="fill: #1f77b4; stroke: #1f77b4"/>
     <use xlink:href="#md206095b7b" x="322.67906" y="169.046647" style="fill: #1f77b4; stroke: #1f77b4"/>
     <use xlink:href="#md206095b7b" x="322.67906" y="148.718103" style="fill: #1f77b4; stroke: #1f77b4"/>
     <use xlink:href="#md206095b7b" x="327.970472" y="181.007639" style="fill: #1f77b4; stroke: #1f77b4"/>
     <use xlink:href="#md206095b7b" x="327.970472" y="136.757111" style="fill: #1f77b4; stroke: #1f77b4"/>
     <use xlink:href="#md206095b7b" x="332.433673" y="158.882375" style="fill: #1f77b4; stroke: #1f77b4"/>
     <use xlink:href="#md206095b7b" x="336.086637" y="158.882375" style="fill: #1f77b4; stroke: #1f77b4"/>
     <use xlink:href="#md206095b7b" x="337.093722" y="190.245051" style="fill: #1f77b4; stroke: #1f77b4"/>
     <use xlink:href="#md206095b7b" x="337.093722" y="127.519699" style="fill: #1f77b4; stroke: #1f77b4"/>
     <use xlink:href="#md206095b7b" x="345.125711" y="158.882375" style="fill: #1f77b4; stroke: #1f77b4"/>
     <use xlink:href="#md206095b7b" x="352.58242" y="158.882375" style="fill: #1f77b4; stroke: #1f77b4"/>
     <use xlink:href="#md206095b7b" x="357.979853" y="171.352425" style="fill: #1f77b4; stroke: #1f77b4"/>
     <use xlink:href="#md206095b7b" x="357.979853" y="146.412325" style="fill: #1f77b4; stroke: #1f77b4"/>
     <use xlink:href="#md206095b7b" x="375.750164" y="192.591226" style="fill: #1f77b4; stroke: #1f77b4"/>
     <use xlink:href="#md206095b7b" x="375.750164" y="125.173524" style="fill: #1f77b4; stroke: #1f77b4"/>
     <use xlink:href="#md206095b7b" x="378.96951" y="158.882375" style="fill: #1f77b4; stroke: #1f77b4"/>
     <use xlink:href="#md206095b7b" x="433.499558" y="294.5725" style="fill: #1f77b4; stroke: #1f77b4"/>
     <use xlink:href="#md206095b7b" x="433.499558" y="23.19225" style="fill: #1f77b4; stroke: #1f77b4"/>
     <use xlink:href="#md206095b7b" x="442.08" y="158.882375" style="fill: #1f77b4; stroke: #1f77b4"/>
    </g>
   </g>
   <g id="matplotlib.axis_1">
    <g id="xtick_1">
     <g id="line2d_1">
      <defs>
       <path id="mef408691c9" d="M 0 0 
L 0 3.5 
" style="stroke: #000000; stroke-width: 0.8"/>
      </defs>
      <g>
       <use xlink:href="#mef408691c9" x="55.822958" y="294.5725" style="stroke: #000000; stroke-width: 0.8"/>
      </g>
     </g>
     <g id="text_1">
      <!-- $\mathdefault{−60}$ -->
      <g transform="translate(45.142958 309.899375) scale(0.12 -0.12)">
       <defs>
        <path id="Cmsy10-a1" d="M 653 1472 
Q 600 1472 565 1512 
Q 531 1553 531 1600 
Q 531 1647 565 1687 
Q 600 1728 653 1728 
L 4325 1728 
Q 4375 1728 4408 1687 
Q 4441 1647 4441 1600 
Q 4441 1553 4408 1512 
Q 4375 1472 4325 1472 
L 653 1472 
z
" transform="scale(0.015625)"/>
        <path id="Cmr10-36" d="M 1600 -141 
Q 1203 -141 937 70 
Q 672 281 526 617 
Q 381 953 325 1322 
Q 269 1691 269 2069 
Q 269 2575 466 3084 
Q 663 3594 1045 3928 
Q 1428 4263 1953 4263 
Q 2172 4263 2361 4180 
Q 2550 4097 2658 3936 
Q 2766 3775 2766 3547 
Q 2766 3416 2677 3327 
Q 2588 3238 2456 3238 
Q 2331 3238 2240 3328 
Q 2150 3419 2150 3547 
Q 2150 3672 2240 3762 
Q 2331 3853 2456 3853 
L 2491 3853 
Q 2409 3969 2261 4023 
Q 2113 4078 1953 4078 
Q 1759 4078 1595 3993 
Q 1431 3909 1300 3765 
Q 1169 3622 1081 3448 
Q 994 3275 945 3053 
Q 897 2831 884 2637 
Q 872 2444 872 2150 
Q 984 2413 1190 2580 
Q 1397 2747 1656 2747 
Q 1941 2747 2175 2631 
Q 2409 2516 2578 2311 
Q 2747 2106 2836 1843 
Q 2925 1581 2925 1313 
Q 2925 938 2758 598 
Q 2591 259 2287 59 
Q 1984 -141 1600 -141 
z
M 1600 63 
Q 1847 63 1997 175 
Q 2147 288 2217 473 
Q 2288 659 2305 848 
Q 2322 1038 2322 1313 
Q 2322 1675 2287 1931 
Q 2253 2188 2100 2383 
Q 1947 2578 1631 2578 
Q 1372 2578 1205 2403 
Q 1038 2228 961 1961 
Q 884 1694 884 1447 
Q 884 1363 891 1319 
Q 891 1309 889 1303 
Q 888 1297 884 1288 
Q 884 1013 940 731 
Q 997 450 1156 256 
Q 1316 63 1600 63 
z
" transform="scale(0.015625)"/>
        <path id="Cmr10-30" d="M 1600 -141 
Q 816 -141 533 504 
Q 250 1150 250 2041 
Q 250 2597 351 3087 
Q 453 3578 754 3920 
Q 1056 4263 1600 4263 
Q 2022 4263 2290 4056 
Q 2559 3850 2700 3523 
Q 2841 3197 2892 2823 
Q 2944 2450 2944 2041 
Q 2944 1491 2842 1011 
Q 2741 531 2444 195 
Q 2147 -141 1600 -141 
z
M 1600 25 
Q 1956 25 2131 390 
Q 2306 756 2347 1200 
Q 2388 1644 2388 2144 
Q 2388 2625 2347 3031 
Q 2306 3438 2132 3767 
Q 1959 4097 1600 4097 
Q 1238 4097 1063 3765 
Q 888 3434 847 3029 
Q 806 2625 806 2144 
Q 806 1788 823 1472 
Q 841 1156 916 820 
Q 991 484 1158 254 
Q 1325 25 1600 25 
z
" transform="scale(0.015625)"/>
       </defs>
       <use xlink:href="#Cmsy10-a1" transform="translate(0 0.390625)"/>
       <use xlink:href="#Cmr10-36" transform="translate(77.685547 0.390625)"/>
       <use xlink:href="#Cmr10-30" transform="translate(127.685547 0.390625)"/>
      </g>
     </g>
    </g>
    <g id="xtick_2">
     <g id="line2d_2">
      <g>
       <use xlink:href="#mef408691c9" x="139.129629" y="294.5725" style="stroke: #000000; stroke-width: 0.8"/>
      </g>
     </g>
     <g id="text_2">
      <!-- $\mathdefault{−40}$ -->
      <g transform="translate(128.449629 309.899375) scale(0.12 -0.12)">
       <defs>
        <path id="Cmr10-34" d="M 178 1056 
L 178 1281 
L 2156 4231 
Q 2178 4263 2222 4263 
L 2316 4263 
Q 2388 4263 2388 4191 
L 2388 1281 
L 3016 1281 
L 3016 1056 
L 2388 1056 
L 2388 428 
Q 2388 297 2575 261 
Q 2763 225 3009 225 
L 3009 0 
L 1247 0 
L 1247 225 
Q 1494 225 1681 261 
Q 1869 297 1869 428 
L 1869 1056 
L 178 1056 
z
M 391 1281 
L 1906 1281 
L 1906 3547 
L 391 1281 
z
" transform="scale(0.015625)"/>
       </defs>
       <use xlink:href="#Cmsy10-a1" transform="translate(0 0.390625)"/>
       <use xlink:href="#Cmr10-34" transform="translate(77.685547 0.390625)"/>
       <use xlink:href="#Cmr10-30" transform="translate(127.685547 0.390625)"/>
      </g>
     </g>
    </g>
    <g id="xtick_3">
     <g id="line2d_3">
      <g>
       <use xlink:href="#mef408691c9" x="222.4363" y="294.5725" style="stroke: #000000; stroke-width: 0.8"/>
      </g>
     </g>
     <g id="text_3">
      <!-- $\mathdefault{−20}$ -->
      <g transform="translate(211.7563 309.899375) scale(0.12 -0.12)">
       <defs>
        <path id="Cmr10-32" d="M 319 0 
L 319 172 
Q 319 188 331 206 
L 1325 1306 
Q 1550 1550 1690 1715 
Q 1831 1881 1968 2097 
Q 2106 2313 2186 2536 
Q 2266 2759 2266 3009 
Q 2266 3272 2169 3511 
Q 2072 3750 1880 3894 
Q 1688 4038 1416 4038 
Q 1138 4038 916 3870 
Q 694 3703 603 3438 
Q 628 3444 672 3444 
Q 816 3444 917 3347 
Q 1019 3250 1019 3097 
Q 1019 2950 917 2848 
Q 816 2747 672 2747 
Q 522 2747 420 2851 
Q 319 2956 319 3097 
Q 319 3338 409 3548 
Q 500 3759 670 3923 
Q 841 4088 1055 4175 
Q 1269 4263 1509 4263 
Q 1875 4263 2190 4108 
Q 2506 3953 2690 3670 
Q 2875 3388 2875 3009 
Q 2875 2731 2753 2481 
Q 2631 2231 2440 2026 
Q 2250 1822 1953 1562 
Q 1656 1303 1563 1216 
L 838 519 
L 1453 519 
Q 1906 519 2211 526 
Q 2516 534 2534 550 
Q 2609 631 2688 1141 
L 2875 1141 
L 2694 0 
L 319 0 
z
" transform="scale(0.015625)"/>
       </defs>
       <use xlink:href="#Cmsy10-a1" transform="translate(0 0.390625)"/>
       <use xlink:href="#Cmr10-32" transform="translate(77.685547 0.390625)"/>
       <use xlink:href="#Cmr10-30" transform="translate(127.685547 0.390625)"/>
      </g>
     </g>
    </g>
    <g id="xtick_4">
     <g id="line2d_4">
      <g>
       <use xlink:href="#mef408691c9" x="305.742972" y="294.5725" style="stroke: #000000; stroke-width: 0.8"/>
      </g>
     </g>
     <g id="text_4">
      <!-- $\mathdefault{0}$ -->
      <g transform="translate(302.742972 309.899375) scale(0.12 -0.12)">
       <use xlink:href="#Cmr10-30" transform="translate(0 0.390625)"/>
      </g>
     </g>
    </g>
    <g id="xtick_5">
     <g id="line2d_5">
      <g>
       <use xlink:href="#mef408691c9" x="389.049643" y="294.5725" style="stroke: #000000; stroke-width: 0.8"/>
      </g>
     </g>
     <g id="text_5">
      <!-- $\mathdefault{20}$ -->
      <g transform="translate(383.049643 309.899375) scale(0.12 -0.12)">
       <use xlink:href="#Cmr10-32" transform="translate(0 0.390625)"/>
       <use xlink:href="#Cmr10-30" transform="translate(50 0.390625)"/>
      </g>
     </g>
    </g>
    <g id="text_6">
     <!-- Real -->
     <g transform="translate(234.415938 324.553125) scale(0.12 -0.12)">
      <defs>
       <path id="Cmr10-52" d="M 213 0 
L 213 225 
Q 872 225 872 428 
L 872 3944 
Q 872 4147 213 4147 
L 213 4372 
L 2222 4372 
Q 2581 4372 2976 4242 
Q 3372 4113 3637 3847 
Q 3903 3581 3903 3213 
Q 3903 2944 3742 2733 
Q 3581 2522 3329 2380 
Q 3078 2238 2816 2175 
Q 3103 2075 3318 1856 
Q 3534 1638 3578 1356 
L 3669 788 
Q 3731 403 3800 214 
Q 3869 25 4103 25 
Q 4303 25 4401 211 
Q 4500 397 4500 616 
Q 4500 638 4520 655 
Q 4541 672 4563 672 
L 4622 672 
Q 4684 672 4684 588 
Q 4684 413 4615 245 
Q 4547 78 4417 -31 
Q 4288 -141 4109 -141 
Q 3647 -141 3314 89 
Q 2981 319 2981 763 
L 2981 1331 
Q 2981 1650 2759 1878 
Q 2538 2106 2216 2106 
L 1447 2106 
L 1447 428 
Q 1447 225 2106 225 
L 2106 0 
L 213 0 
z
M 1447 2272 
L 2131 2272 
Q 2663 2272 2941 2486 
Q 3219 2700 3219 3213 
Q 3219 3722 2944 3934 
Q 2669 4147 2131 4147 
L 1772 4147 
Q 1656 4147 1592 4137 
Q 1528 4128 1487 4083 
Q 1447 4038 1447 3944 
L 1447 2272 
z
" transform="scale(0.015625)"/>
       <path id="Cmr10-65" d="M 1594 -72 
Q 1203 -72 876 133 
Q 550 338 364 680 
Q 178 1022 178 1403 
Q 178 1778 348 2115 
Q 519 2453 823 2661 
Q 1128 2869 1503 2869 
Q 1797 2869 2014 2770 
Q 2231 2672 2372 2497 
Q 2513 2322 2584 2084 
Q 2656 1847 2656 1563 
Q 2656 1478 2591 1478 
L 738 1478 
L 738 1409 
Q 738 878 952 497 
Q 1166 116 1650 116 
Q 1847 116 2014 203 
Q 2181 291 2304 447 
Q 2428 603 2472 781 
Q 2478 803 2495 820 
Q 2513 838 2534 838 
L 2591 838 
Q 2656 838 2656 756 
Q 2566 394 2266 161 
Q 1966 -72 1594 -72 
z
M 744 1638 
L 2203 1638 
Q 2203 1878 2136 2125 
Q 2069 2372 1912 2536 
Q 1756 2700 1503 2700 
Q 1141 2700 942 2361 
Q 744 2022 744 1638 
z
" transform="scale(0.015625)"/>
       <path id="Cmr10-61" d="M 256 628 
Q 256 1009 556 1248 
Q 856 1488 1276 1586 
Q 1697 1684 2075 1684 
L 2075 1947 
Q 2075 2131 1994 2304 
Q 1913 2478 1759 2589 
Q 1606 2700 1422 2700 
Q 997 2700 775 2509 
Q 897 2509 976 2417 
Q 1056 2325 1056 2203 
Q 1056 2075 965 1984 
Q 875 1894 750 1894 
Q 622 1894 531 1984 
Q 441 2075 441 2203 
Q 441 2541 747 2705 
Q 1053 2869 1422 2869 
Q 1681 2869 1943 2758 
Q 2206 2647 2373 2440 
Q 2541 2234 2541 1959 
L 2541 519 
Q 2541 394 2594 289 
Q 2647 184 2759 184 
Q 2866 184 2917 290 
Q 2969 397 2969 519 
L 2969 928 
L 3156 928 
L 3156 519 
Q 3156 375 3081 245 
Q 3006 116 2879 39 
Q 2753 -38 2606 -38 
Q 2419 -38 2283 107 
Q 2147 253 2131 453 
Q 2013 213 1781 70 
Q 1550 -72 1288 -72 
Q 1044 -72 808 0 
Q 572 72 414 226 
Q 256 381 256 628 
z
M 775 628 
Q 775 403 940 250 
Q 1106 97 1331 97 
Q 1538 97 1706 200 
Q 1875 303 1975 481 
Q 2075 659 2075 856 
L 2075 1522 
Q 1784 1522 1479 1426 
Q 1175 1331 975 1128 
Q 775 925 775 628 
z
" transform="scale(0.015625)"/>
       <path id="Cmr10-6c" d="M 197 0 
L 197 225 
Q 416 225 556 259 
Q 697 294 697 428 
L 697 3788 
Q 697 3959 645 4036 
Q 594 4113 497 4130 
Q 400 4147 197 4147 
L 197 4372 
L 1147 4441 
L 1147 428 
Q 1147 294 1287 259 
Q 1428 225 1644 225 
L 1644 0 
L 197 0 
z
" transform="scale(0.015625)"/>
      </defs>
      <use xlink:href="#Cmr10-52"/>
      <use xlink:href="#Cmr10-65" x="73.583984"/>
      <use xlink:href="#Cmr10-61" x="117.96875"/>
      <use xlink:href="#Cmr10-6c" x="167.96875"/>
     </g>
    </g>
   </g>
   <g id="matplotlib.axis_2">
    <g id="ytick_1">
     <g id="line2d_6">
      <defs>
       <path id="m4da67c3d77" d="M 0 0 
L -3.5 0 
" style="stroke: #000000; stroke-width: 0.8"/>
      </defs>
      <g>
       <use xlink:href="#m4da67c3d77" x="50.230625" y="261.050231" style="stroke: #000000; stroke-width: 0.8"/>
      </g>
     </g>
     <g id="text_7">
      <!-- $\mathdefault{−40}$ -->
      <g transform="translate(21.870625 265.213669) scale(0.12 -0.12)">
       <use xlink:href="#Cmsy10-a1" transform="translate(0 0.390625)"/>
       <use xlink:href="#Cmr10-34" transform="translate(77.685547 0.390625)"/>
       <use xlink:href="#Cmr10-30" transform="translate(127.685547 0.390625)"/>
      </g>
     </g>
    </g>
    <g id="ytick_2">
     <g id="line2d_7">
      <g>
       <use xlink:href="#m4da67c3d77" x="50.230625" y="209.966303" style="stroke: #000000; stroke-width: 0.8"/>
      </g>
     </g>
     <g id="text_8">
      <!-- $\mathdefault{−20}$ -->
      <g transform="translate(21.870625 214.129741) scale(0.12 -0.12)">
       <use xlink:href="#Cmsy10-a1" transform="translate(0 0.390625)"/>
       <use xlink:href="#Cmr10-32" transform="translate(77.685547 0.390625)"/>
       <use xlink:href="#Cmr10-30" transform="translate(127.685547 0.390625)"/>
      </g>
     </g>
    </g>
    <g id="ytick_3">
     <g id="line2d_8">
      <g>
       <use xlink:href="#m4da67c3d77" x="50.230625" y="158.882375" style="stroke: #000000; stroke-width: 0.8"/>
      </g>
     </g>
     <g id="text_9">
      <!-- $\mathdefault{0}$ -->
      <g transform="translate(37.230625 163.045812) scale(0.12 -0.12)">
       <use xlink:href="#Cmr10-30" transform="translate(0 0.390625)"/>
      </g>
     </g>
    </g>
    <g id="ytick_4">
     <g id="line2d_9">
      <g>
       <use xlink:href="#m4da67c3d77" x="50.230625" y="107.798447" style="stroke: #000000; stroke-width: 0.8"/>
      </g>
     </g>
     <g id="text_10">
      <!-- $\mathdefault{20}$ -->
      <g transform="translate(31.230625 111.961884) scale(0.12 -0.12)">
       <use xlink:href="#Cmr10-32" transform="translate(0 0.390625)"/>
       <use xlink:href="#Cmr10-30" transform="translate(50 0.390625)"/>
      </g>
     </g>
    </g>
    <g id="ytick_5">
     <g id="line2d_10">
      <g>
       <use xlink:href="#m4da67c3d77" x="50.230625" y="56.714519" style="stroke: #000000; stroke-width: 0.8"/>
      </g>
     </g>
     <g id="text_11">
      <!-- $\mathdefault{40}$ -->
      <g transform="translate(31.230625 60.877956) scale(0.12 -0.12)">
       <use xlink:href="#Cmr10-34" transform="translate(0 0.390625)"/>
       <use xlink:href="#Cmr10-30" transform="translate(50 0.390625)"/>
      </g>
     </g>
    </g>
    <g id="text_12">
     <!-- Imaginary -->
     <g transform="translate(15.3975 185.544875) rotate(-90) scale(0.12 -0.12)">
      <defs>
       <path id="Cmr10-49" d="M 166 0 
L 166 225 
Q 856 225 856 428 
L 856 3944 
Q 856 4147 166 4147 
L 166 4372 
L 2144 4372 
L 2144 4147 
Q 1453 4147 1453 3944 
L 1453 428 
Q 1453 225 2144 225 
L 2144 0 
L 166 0 
z
" transform="scale(0.015625)"/>
       <path id="Cmr10-6d" d="M 191 0 
L 191 225 
Q 409 225 550 259 
Q 691 294 691 428 
L 691 2175 
Q 691 2347 639 2423 
Q 588 2500 491 2517 
Q 394 2534 191 2534 
L 191 2759 
L 1119 2828 
L 1119 2203 
Q 1247 2478 1498 2653 
Q 1750 2828 2047 2828 
Q 2784 2828 2913 2228 
Q 3041 2497 3287 2662 
Q 3534 2828 3828 2828 
Q 4119 2828 4317 2734 
Q 4516 2641 4616 2448 
Q 4716 2256 4716 1966 
L 4716 428 
Q 4716 294 4858 259 
Q 5000 225 5216 225 
L 5216 0 
L 3750 0 
L 3750 225 
Q 3969 225 4109 259 
Q 4250 294 4250 428 
L 4250 1947 
Q 4250 2269 4159 2466 
Q 4069 2663 3788 2663 
Q 3419 2663 3178 2366 
Q 2938 2069 2938 1691 
L 2938 428 
Q 2938 294 3078 259 
Q 3219 225 3438 225 
L 3438 0 
L 1972 0 
L 1972 225 
Q 2191 225 2331 259 
Q 2472 294 2472 428 
L 2472 1947 
Q 2472 2259 2381 2461 
Q 2291 2663 2009 2663 
Q 1638 2663 1398 2366 
Q 1159 2069 1159 1691 
L 1159 428 
Q 1159 294 1300 259 
Q 1441 225 1656 225 
L 1656 0 
L 191 0 
z
" transform="scale(0.015625)"/>
       <path id="Cmr10-67" d="M 178 -500 
Q 178 -272 343 -101 
Q 509 69 738 141 
Q 609 238 542 384 
Q 475 531 475 697 
Q 475 997 666 1228 
Q 372 1516 372 1888 
Q 372 2088 458 2263 
Q 544 2438 697 2566 
Q 850 2694 1037 2761 
Q 1225 2828 1422 2828 
Q 1803 2828 2106 2606 
Q 2238 2747 2417 2823 
Q 2597 2900 2791 2900 
Q 2928 2900 3015 2801 
Q 3103 2703 3103 2566 
Q 3103 2488 3043 2428 
Q 2984 2369 2906 2369 
Q 2825 2369 2765 2428 
Q 2706 2488 2706 2566 
Q 2706 2684 2784 2731 
Q 2453 2731 2216 2503 
Q 2331 2388 2401 2220 
Q 2472 2053 2472 1888 
Q 2472 1616 2322 1398 
Q 2172 1181 1926 1061 
Q 1681 941 1422 941 
Q 1072 941 781 1131 
Q 691 1006 691 850 
Q 691 681 802 554 
Q 913 428 1081 428 
L 1606 428 
Q 1988 428 2294 359 
Q 2600 291 2808 84 
Q 3016 -122 3016 -500 
Q 3016 -781 2778 -967 
Q 2541 -1153 2211 -1236 
Q 1881 -1319 1600 -1319 
Q 1316 -1319 984 -1236 
Q 653 -1153 415 -967 
Q 178 -781 178 -500 
z
M 538 -500 
Q 538 -716 713 -861 
Q 888 -1006 1134 -1076 
Q 1381 -1147 1600 -1147 
Q 1816 -1147 2062 -1076 
Q 2309 -1006 2482 -861 
Q 2656 -716 2656 -500 
Q 2656 -166 2350 -67 
Q 2044 31 1606 31 
L 1081 31 
Q 934 31 811 -39 
Q 688 -109 613 -236 
Q 538 -363 538 -500 
z
M 1422 1113 
Q 1966 1113 1966 1888 
Q 1966 2222 1850 2439 
Q 1734 2656 1422 2656 
Q 1109 2656 993 2439 
Q 878 2222 878 1888 
Q 878 1675 922 1503 
Q 966 1331 1084 1222 
Q 1203 1113 1422 1113 
z
" transform="scale(0.015625)"/>
       <path id="Cmr10-69" d="M 197 0 
L 197 225 
Q 416 225 556 259 
Q 697 294 697 428 
L 697 2175 
Q 697 2422 601 2478 
Q 506 2534 225 2534 
L 225 2759 
L 1147 2828 
L 1147 428 
Q 1147 294 1269 259 
Q 1391 225 1594 225 
L 1594 0 
L 197 0 
z
M 469 3928 
Q 469 4069 575 4175 
Q 681 4281 819 4281 
Q 909 4281 993 4234 
Q 1078 4188 1125 4103 
Q 1172 4019 1172 3928 
Q 1172 3791 1065 3684 
Q 959 3578 819 3578 
Q 681 3578 575 3684 
Q 469 3791 469 3928 
z
" transform="scale(0.015625)"/>
       <path id="Cmr10-6e" d="M 191 0 
L 191 225 
Q 409 225 550 259 
Q 691 294 691 428 
L 691 2175 
Q 691 2347 639 2423 
Q 588 2500 491 2517 
Q 394 2534 191 2534 
L 191 2759 
L 1119 2828 
L 1119 2203 
Q 1247 2478 1498 2653 
Q 1750 2828 2047 2828 
Q 2491 2828 2714 2615 
Q 2938 2403 2938 1966 
L 2938 428 
Q 2938 294 3078 259 
Q 3219 225 3438 225 
L 3438 0 
L 1972 0 
L 1972 225 
Q 2191 225 2331 259 
Q 2472 294 2472 428 
L 2472 1947 
Q 2472 2259 2381 2461 
Q 2291 2663 2009 2663 
Q 1638 2663 1398 2366 
Q 1159 2069 1159 1691 
L 1159 428 
Q 1159 294 1300 259 
Q 1441 225 1656 225 
L 1656 0 
L 191 0 
z
" transform="scale(0.015625)"/>
       <path id="Cmr10-72" d="M 166 0 
L 166 225 
Q 384 225 525 259 
Q 666 294 666 428 
L 666 2175 
Q 666 2347 614 2423 
Q 563 2500 466 2517 
Q 369 2534 166 2534 
L 166 2759 
L 1081 2828 
L 1081 2203 
Q 1184 2481 1375 2654 
Q 1566 2828 1838 2828 
Q 2028 2828 2178 2715 
Q 2328 2603 2328 2419 
Q 2328 2303 2245 2217 
Q 2163 2131 2041 2131 
Q 1922 2131 1837 2215 
Q 1753 2300 1753 2419 
Q 1753 2591 1875 2663 
L 1838 2663 
Q 1578 2663 1414 2475 
Q 1250 2288 1181 2009 
Q 1113 1731 1113 1478 
L 1113 428 
Q 1113 225 1734 225 
L 1734 0 
L 166 0 
z
" transform="scale(0.015625)"/>
       <path id="Cmr10-79" d="M 441 -1050 
Q 563 -1147 709 -1147 
Q 1113 -1147 1369 -538 
L 1588 0 
L 628 2350 
Q 569 2469 447 2501 
Q 325 2534 122 2534 
L 122 2759 
L 1466 2759 
L 1466 2534 
Q 1113 2534 1113 2381 
Q 1113 2356 1119 2344 
L 1831 594 
L 2472 2169 
Q 2491 2219 2491 2278 
Q 2491 2356 2448 2414 
Q 2406 2472 2339 2503 
Q 2272 2534 2188 2534 
L 2188 2759 
L 3250 2759 
L 3250 2534 
Q 3053 2534 2904 2443 
Q 2756 2353 2675 2175 
L 1569 -538 
Q 1481 -744 1364 -917 
Q 1247 -1091 1078 -1202 
Q 909 -1313 709 -1313 
Q 475 -1313 298 -1158 
Q 122 -1003 122 -775 
Q 122 -656 203 -575 
Q 284 -494 403 -494 
Q 484 -494 548 -530 
Q 613 -566 648 -628 
Q 684 -691 684 -775 
Q 684 -878 615 -959 
Q 547 -1041 441 -1050 
z
" transform="scale(0.015625)"/>
      </defs>
      <use xlink:href="#Cmr10-49"/>
      <use xlink:href="#Cmr10-6d" x="36.083984"/>
      <use xlink:href="#Cmr10-61" x="119.384766"/>
      <use xlink:href="#Cmr10-67" x="169.384766"/>
      <use xlink:href="#Cmr10-69" x="219.384766"/>
      <use xlink:href="#Cmr10-6e" x="247.070312"/>
      <use xlink:href="#Cmr10-61" x="302.587891"/>
      <use xlink:href="#Cmr10-72" x="352.587891"/>
      <use xlink:href="#Cmr10-79" x="391.699219"/>
     </g>
    </g>
   </g>
   <g id="patch_3">
    <path d="M 50.230625 294.5725 
L 50.230625 23.19225 
" style="fill: none; stroke: #000000; stroke-width: 0.8; stroke-linejoin: miter; stroke-linecap: square"/>
   </g>
   <g id="patch_4">
    <path d="M 442.08 294.5725 
L 442.08 23.19225 
" style="fill: none; stroke: #000000; stroke-width: 0.8; stroke-linejoin: miter; stroke-linecap: square"/>
   </g>
   <g id="patch_5">
    <path d="M 50.230625 294.5725 
L 442.08 294.5725 
" style="fill: none; stroke: #000000; stroke-width: 0.8; stroke-linejoin: miter; stroke-linecap: square"/>
   </g>
   <g id="patch_6">
    <path d="M 50.230625 23.19225 
L 442.08 23.19225 
" style="fill: none; stroke: #000000; stroke-width: 0.8; stroke-linejoin: miter; stroke-linecap: square"/>
   </g>
   <g id="text_13">
    <!-- West 132 Eigenvalues -->
    <g transform="translate(177.237813 17.19225) scale(0.144 -0.144)">
     <defs>
      <path id="Cmr10-57" d="M 1991 -72 
L 684 3944 
Q 634 4078 490 4112 
Q 347 4147 116 4147 
L 116 4372 
L 1831 4372 
L 1831 4147 
Q 1294 4147 1294 3975 
L 1294 3944 
L 2316 794 
L 3188 3488 
L 3041 3944 
Q 2991 4078 2847 4112 
Q 2703 4147 2472 4147 
L 2472 4372 
L 4184 4372 
L 4184 4147 
Q 3641 4147 3641 3975 
Q 3641 3966 3647 3947 
Q 3653 3928 3653 3922 
L 4672 794 
L 5631 3769 
Q 5638 3788 5638 3828 
Q 5638 3997 5459 4072 
Q 5281 4147 5088 4147 
L 5088 4372 
L 6456 4372 
L 6456 4147 
Q 5950 4147 5831 3769 
L 4581 -72 
Q 4559 -141 4488 -141 
L 4441 -141 
Q 4369 -141 4347 -72 
L 3291 3188 
L 2228 -72 
Q 2206 -141 2131 -141 
L 2088 -141 
Q 2013 -141 1991 -72 
z
" transform="scale(0.015625)"/>
      <path id="Cmr10-73" d="M 213 -19 
L 213 1025 
Q 213 1075 269 1075 
L 347 1075 
Q 384 1075 397 1025 
Q 575 97 1259 97 
Q 1563 97 1767 234 
Q 1972 372 1972 659 
Q 1972 866 1812 1011 
Q 1653 1156 1434 1209 
L 1006 1294 
Q 791 1341 614 1437 
Q 438 1534 325 1695 
Q 213 1856 213 2069 
Q 213 2350 361 2529 
Q 509 2709 746 2789 
Q 984 2869 1259 2869 
Q 1588 2869 1831 2694 
L 2016 2853 
Q 2016 2869 2047 2869 
L 2094 2869 
Q 2113 2869 2128 2851 
Q 2144 2834 2144 2816 
L 2144 1978 
Q 2144 1919 2094 1919 
L 2016 1919 
Q 1959 1919 1959 1978 
Q 1959 2313 1773 2516 
Q 1588 2719 1253 2719 
Q 966 2719 755 2612 
Q 544 2506 544 2247 
Q 544 2069 695 1955 
Q 847 1841 1050 1791 
L 1484 1709 
Q 1703 1659 1892 1540 
Q 2081 1422 2192 1240 
Q 2303 1059 2303 831 
Q 2303 600 2223 429 
Q 2144 259 2001 146 
Q 1859 34 1665 -19 
Q 1472 -72 1259 -72 
Q 859 -72 575 197 
L 341 -56 
Q 341 -72 306 -72 
L 269 -72 
Q 213 -72 213 -19 
z
" transform="scale(0.015625)"/>
      <path id="Cmr10-74" d="M 653 769 
L 653 2534 
L 122 2534 
L 122 2700 
Q 541 2700 737 3090 
Q 934 3481 934 3938 
L 1119 3938 
L 1119 2759 
L 2022 2759 
L 2022 2534 
L 1119 2534 
L 1119 781 
Q 1119 516 1208 316 
Q 1297 116 1528 116 
Q 1747 116 1844 327 
Q 1941 538 1941 781 
L 1941 1159 
L 2125 1159 
L 2125 769 
Q 2125 569 2051 373 
Q 1978 178 1834 53 
Q 1691 -72 1484 -72 
Q 1100 -72 876 158 
Q 653 388 653 769 
z
" transform="scale(0.015625)"/>
      <path id="Cmr10-20" transform="scale(0.015625)"/>
      <path id="Cmr10-31" d="M 594 0 
L 594 225 
Q 1394 225 1394 428 
L 1394 3788 
Q 1063 3628 556 3628 
L 556 3853 
Q 1341 3853 1741 4263 
L 1831 4263 
Q 1853 4263 1873 4245 
Q 1894 4228 1894 4206 
L 1894 428 
Q 1894 225 2694 225 
L 2694 0 
L 594 0 
z
" transform="scale(0.015625)"/>
      <path id="Cmr10-33" d="M 609 494 
Q 759 275 1012 169 
Q 1266 63 1556 63 
Q 1928 63 2084 380 
Q 2241 697 2241 1100 
Q 2241 1281 2208 1462 
Q 2175 1644 2097 1800 
Q 2019 1956 1883 2050 
Q 1747 2144 1550 2144 
L 1125 2144 
Q 1069 2144 1069 2203 
L 1069 2259 
Q 1069 2309 1125 2309 
L 1478 2338 
Q 1703 2338 1851 2506 
Q 2000 2675 2069 2917 
Q 2138 3159 2138 3378 
Q 2138 3684 1994 3881 
Q 1850 4078 1556 4078 
Q 1313 4078 1091 3986 
Q 869 3894 738 3706 
Q 750 3709 759 3711 
Q 769 3713 781 3713 
Q 925 3713 1022 3613 
Q 1119 3513 1119 3372 
Q 1119 3234 1022 3134 
Q 925 3034 781 3034 
Q 641 3034 541 3134 
Q 441 3234 441 3372 
Q 441 3647 606 3850 
Q 772 4053 1033 4158 
Q 1294 4263 1556 4263 
Q 1750 4263 1965 4205 
Q 2181 4147 2356 4039 
Q 2531 3931 2642 3762 
Q 2753 3594 2753 3378 
Q 2753 3109 2633 2881 
Q 2513 2653 2303 2487 
Q 2094 2322 1844 2241 
Q 2122 2188 2372 2031 
Q 2622 1875 2773 1631 
Q 2925 1388 2925 1106 
Q 2925 753 2731 467 
Q 2538 181 2222 20 
Q 1906 -141 1556 -141 
Q 1256 -141 954 -26 
Q 653 88 461 316 
Q 269 544 269 863 
Q 269 1022 375 1128 
Q 481 1234 641 1234 
Q 744 1234 830 1186 
Q 916 1138 964 1050 
Q 1013 963 1013 863 
Q 1013 706 903 600 
Q 794 494 641 494 
L 609 494 
z
" transform="scale(0.015625)"/>
      <path id="Cmr10-45" d="M 197 0 
L 197 225 
Q 856 225 856 428 
L 856 3944 
Q 856 4147 197 4147 
L 197 4372 
L 3816 4372 
L 3994 2906 
L 3809 2906 
Q 3741 3459 3617 3709 
Q 3494 3959 3222 4053 
Q 2950 4147 2406 4147 
L 1778 4147 
Q 1663 4147 1598 4137 
Q 1534 4128 1493 4083 
Q 1453 4038 1453 3944 
L 1453 2381 
L 1925 2381 
Q 2250 2381 2411 2436 
Q 2572 2491 2633 2645 
Q 2694 2800 2694 3128 
L 2881 3128 
L 2881 1409 
L 2694 1409 
Q 2694 1734 2633 1890 
Q 2572 2047 2411 2101 
Q 2250 2156 1925 2156 
L 1453 2156 
L 1453 428 
Q 1453 291 1531 258 
Q 1609 225 1778 225 
L 2456 225 
Q 2900 225 3173 295 
Q 3447 366 3598 530 
Q 3750 694 3833 955 
Q 3916 1216 3988 1678 
L 4172 1678 
L 3903 0 
L 197 0 
z
" transform="scale(0.015625)"/>
      <path id="Cmr10-76" d="M 1563 0 
L 628 2350 
Q 569 2469 445 2501 
Q 322 2534 122 2534 
L 122 2759 
L 1466 2759 
L 1466 2534 
Q 1106 2534 1106 2381 
Q 1106 2356 1113 2344 
L 1831 538 
L 2478 2169 
Q 2497 2219 2497 2272 
Q 2497 2394 2405 2464 
Q 2313 2534 2188 2534 
L 2188 2759 
L 3250 2759 
L 3250 2534 
Q 3053 2534 2904 2443 
Q 2756 2353 2675 2175 
L 1813 0 
Q 1788 -72 1709 -72 
L 1663 -72 
Q 1584 -72 1563 0 
z
" transform="scale(0.015625)"/>
      <path id="Cmr10-75" d="M 691 763 
L 691 2175 
Q 691 2347 639 2423 
Q 588 2500 491 2517 
Q 394 2534 191 2534 
L 191 2759 
L 1159 2828 
L 1159 763 
Q 1159 513 1195 373 
Q 1231 234 1348 165 
Q 1466 97 1722 97 
Q 2066 97 2269 384 
Q 2472 672 2472 1038 
L 2472 2175 
Q 2472 2347 2419 2423 
Q 2366 2500 2270 2517 
Q 2175 2534 1972 2534 
L 1972 2759 
L 2938 2828 
L 2938 581 
Q 2938 413 2989 336 
Q 3041 259 3137 242 
Q 3234 225 3438 225 
L 3438 0 
L 2491 -72 
L 2491 469 
Q 2372 228 2159 78 
Q 1947 -72 1691 -72 
Q 1231 -72 961 123 
Q 691 319 691 763 
z
" transform="scale(0.015625)"/>
     </defs>
     <use xlink:href="#Cmr10-57"/>
     <use xlink:href="#Cmr10-65" x="102.685547"/>
     <use xlink:href="#Cmr10-73" x="147.070312"/>
     <use xlink:href="#Cmr10-74" x="186.474609"/>
     <use xlink:href="#Cmr10-20" x="225.292969"/>
     <use xlink:href="#Cmr10-31" x="258.59375"/>
     <use xlink:href="#Cmr10-33" x="308.59375"/>
     <use xlink:href="#Cmr10-32" x="358.59375"/>
     <use xlink:href="#Cmr10-20" x="408.59375"/>
     <use xlink:href="#Cmr10-45" x="441.894531"/>
     <use xlink:href="#Cmr10-69" x="509.912109"/>
     <use xlink:href="#Cmr10-67" x="537.597656"/>
     <use xlink:href="#Cmr10-65" x="587.597656"/>
     <use xlink:href="#Cmr10-6e" x="631.982422"/>
     <use xlink:href="#Cmr10-76" x="687.5"/>
     <use xlink:href="#Cmr10-61" x="740.185547"/>
     <use xlink:href="#Cmr10-6c" x="790.185547"/>
     <use xlink:href="#Cmr10-75" x="817.871094"/>
     <use xlink:href="#Cmr10-65" x="873.388672"/>
     <use xlink:href="#Cmr10-73" x="917.773438"/>
    </g>
   </g>
  </g>
 </g>
 <defs>
  <clipPath id="p8b4bc883f1">
   <rect x="50.230625" y="23.19225" width="391.849375" height="271.38025"/>
  </clipPath>
 </defs>
</svg>
